<?xml version="1.0" encoding="UTF-8" standalone="no"?>
<!DOCTYPE svg PUBLIC "-//W3C//DTD SVG 1.1//EN"
 "http://www.w3.org/Graphics/SVG/1.1/DTD/svg11.dtd">
<!-- Generated by graphviz version 2.47.0 (20210316.0004)
 -->
<!-- Title: dbml Pages: 1 -->
<svg width="2090pt" height="2072pt"
 viewBox="0.00 0.00 2089.60 2072.33" xmlns="http://www.w3.org/2000/svg" xmlns:xlink="http://www.w3.org/1999/xlink">
<g id="graph0" class="graph" transform="scale(1 1) rotate(0) translate(4 2068.33)">
<title>dbml</title>
<!-- users -->
<g id="users" class="node">
<title>users</title>
<ellipse fill="none" stroke="black" stroke-width="0" cx="338" cy="-1104.67" rx="291.16" ry="172.57"/>
<polygon fill="#1d71b8" stroke="transparent" points="134,-1164.67 134,-1224.67 542,-1224.67 542,-1164.67 134,-1164.67"/>
<polygon fill="none" stroke="#29235c" points="134,-1164.67 134,-1224.67 542,-1224.67 542,-1164.67 134,-1164.67"/>
<text text-anchor="start" x="236.63" y="-1185.87" font-family="Helvetica,sans-Serif" font-weight="bold" font-size="32.00" fill="#ffffff"> &#160;&#160;&#160;&#160;&#160;&#160;users &#160;&#160;&#160;&#160;&#160;&#160;</text>
<polygon fill="#e7e2dd" stroke="transparent" points="134,-1104.67 134,-1164.67 542,-1164.67 542,-1104.67 134,-1104.67"/>
<polygon fill="none" stroke="#29235c" points="134,-1104.67 134,-1164.67 542,-1164.67 542,-1104.67 134,-1104.67"/>
<text text-anchor="start" x="145" y="-1125.87" font-family="Helvetica,sans-Serif" font-weight="bold" font-size="32.00" fill="#29235c">id</text>
<text text-anchor="start" x="169.89" y="-1125.87" font-family="Helvetica,sans-Serif" font-size="32.00" fill="#29235c"> &#160;&#160;&#160;</text>
<text text-anchor="start" x="317.69" y="-1125.87" font-family="Helvetica,sans-Serif" font-style="italic" font-size="32.00" fill="#29235c">VARCHAR(36)</text>
<polygon fill="#e7e2dd" stroke="transparent" points="134,-1044.67 134,-1104.67 542,-1104.67 542,-1044.67 134,-1044.67"/>
<polygon fill="none" stroke="#29235c" points="134,-1044.67 134,-1104.67 542,-1104.67 542,-1044.67 134,-1044.67"/>
<text text-anchor="start" x="145" y="-1064.87" font-family="Helvetica,sans-Serif" font-size="32.00" fill="#29235c">email &#160;&#160;&#160;</text>
<text text-anchor="start" x="260.81" y="-1065.87" font-family="Helvetica,sans-Serif" font-style="italic" font-size="32.00" fill="#29235c">VARCHAR(255)</text>
<text text-anchor="start" x="491.91" y="-1065.87" font-family="Helvetica,sans-Serif" font-size="32.00" fill="#29235c"> </text>
<text text-anchor="start" x="500.8" y="-1065.87" font-family="Helvetica,sans-Serif" font-weight="bold" font-size="32.00" fill="#29235c">(!)</text>
<polygon fill="#e7e2dd" stroke="transparent" points="134,-984.67 134,-1044.67 542,-1044.67 542,-984.67 134,-984.67"/>
<polygon fill="none" stroke="#29235c" points="134,-984.67 134,-1044.67 542,-1044.67 542,-984.67 134,-984.67"/>
<text text-anchor="start" x="144.63" y="-1004.87" font-family="Helvetica,sans-Serif" font-size="32.00" fill="#29235c">created_at &#160;&#160;&#160;</text>
<text text-anchor="start" x="330.57" y="-1005.87" font-family="Helvetica,sans-Serif" font-style="italic" font-size="32.00" fill="#29235c">DATETIME</text>
<text text-anchor="start" x="492.33" y="-1005.87" font-family="Helvetica,sans-Serif" font-size="32.00" fill="#29235c"> </text>
<text text-anchor="start" x="501.23" y="-1005.87" font-family="Helvetica,sans-Serif" font-weight="bold" font-size="32.00" fill="#29235c">(!)</text>
<polygon fill="none" stroke="#29235c" stroke-width="2" points="133,-983.67 133,-1225.67 543,-1225.67 543,-983.67 133,-983.67"/>
</g>
<!-- sessions -->
<g id="sessions" class="node">
<title>sessions</title>
<ellipse fill="none" stroke="black" stroke-width="0" cx="1035.14" cy="-1619.67" rx="323.3" ry="299.63"/>
<polygon fill="#1d71b8" stroke="transparent" points="809.14,-1769.67 809.14,-1829.67 1262.14,-1829.67 1262.14,-1769.67 809.14,-1769.67"/>
<polygon fill="none" stroke="#29235c" points="809.14,-1769.67 809.14,-1829.67 1262.14,-1829.67 1262.14,-1769.67 809.14,-1769.67"/>
<text text-anchor="start" x="911.16" y="-1790.87" font-family="Helvetica,sans-Serif" font-weight="bold" font-size="32.00" fill="#ffffff"> &#160;&#160;&#160;&#160;&#160;&#160;sessions &#160;&#160;&#160;&#160;&#160;&#160;</text>
<polygon fill="#e7e2dd" stroke="transparent" points="809.14,-1709.67 809.14,-1769.67 1262.14,-1769.67 1262.14,-1709.67 809.14,-1709.67"/>
<polygon fill="none" stroke="#29235c" points="809.14,-1709.67 809.14,-1769.67 1262.14,-1769.67 1262.14,-1709.67 809.14,-1709.67"/>
<text text-anchor="start" x="820.14" y="-1730.87" font-family="Helvetica,sans-Serif" font-weight="bold" font-size="32.00" fill="#29235c">id</text>
<text text-anchor="start" x="845.03" y="-1730.87" font-family="Helvetica,sans-Serif" font-size="32.00" fill="#29235c"> &#160;&#160;&#160;</text>
<text text-anchor="start" x="1037.83" y="-1730.87" font-family="Helvetica,sans-Serif" font-style="italic" font-size="32.00" fill="#29235c">VARCHAR(36)</text>
<polygon fill="#e7e2dd" stroke="transparent" points="809.14,-1649.67 809.14,-1709.67 1262.14,-1709.67 1262.14,-1649.67 809.14,-1649.67"/>
<polygon fill="none" stroke="#29235c" points="809.14,-1649.67 809.14,-1709.67 1262.14,-1709.67 1262.14,-1649.67 809.14,-1649.67"/>
<text text-anchor="start" x="820.14" y="-1669.87" font-family="Helvetica,sans-Serif" font-size="32.00" fill="#29235c">user_id &#160;&#160;&#160;</text>
<text text-anchor="start" x="998.74" y="-1670.87" font-family="Helvetica,sans-Serif" font-style="italic" font-size="32.00" fill="#29235c">VARCHAR(36)</text>
<text text-anchor="start" x="1212.05" y="-1670.87" font-family="Helvetica,sans-Serif" font-size="32.00" fill="#29235c"> </text>
<text text-anchor="start" x="1220.94" y="-1670.87" font-family="Helvetica,sans-Serif" font-weight="bold" font-size="32.00" fill="#29235c">(!)</text>
<polygon fill="#e7e2dd" stroke="transparent" points="809.14,-1589.67 809.14,-1649.67 1262.14,-1649.67 1262.14,-1589.67 809.14,-1589.67"/>
<polygon fill="none" stroke="#29235c" points="809.14,-1589.67 809.14,-1649.67 1262.14,-1649.67 1262.14,-1589.67 809.14,-1589.67"/>
<text text-anchor="start" x="820.14" y="-1609.87" font-family="Helvetica,sans-Serif" font-size="32.00" fill="#29235c">expires_at &#160;&#160;&#160;</text>
<text text-anchor="start" x="1050.28" y="-1610.87" font-family="Helvetica,sans-Serif" font-style="italic" font-size="32.00" fill="#29235c">DATETIME</text>
<text text-anchor="start" x="1212.05" y="-1610.87" font-family="Helvetica,sans-Serif" font-size="32.00" fill="#29235c"> </text>
<text text-anchor="start" x="1220.94" y="-1610.87" font-family="Helvetica,sans-Serif" font-weight="bold" font-size="32.00" fill="#29235c">(!)</text>
<polygon fill="#e7e2dd" stroke="transparent" points="809.14,-1529.67 809.14,-1589.67 1262.14,-1589.67 1262.14,-1529.67 809.14,-1529.67"/>
<polygon fill="none" stroke="#29235c" points="809.14,-1529.67 809.14,-1589.67 1262.14,-1589.67 1262.14,-1529.67 809.14,-1529.67"/>
<text text-anchor="start" x="820.05" y="-1549.87" font-family="Helvetica,sans-Serif" font-size="32.00" fill="#29235c">last_active_at &#160;&#160;&#160;</text>
<text text-anchor="start" x="1050.71" y="-1550.87" font-family="Helvetica,sans-Serif" font-style="italic" font-size="32.00" fill="#29235c">DATETIME</text>
<text text-anchor="start" x="1212.48" y="-1550.87" font-family="Helvetica,sans-Serif" font-size="32.00" fill="#29235c"> </text>
<text text-anchor="start" x="1221.37" y="-1550.87" font-family="Helvetica,sans-Serif" font-weight="bold" font-size="32.00" fill="#29235c">(!)</text>
<polygon fill="#e7e2dd" stroke="transparent" points="809.14,-1469.67 809.14,-1529.67 1262.14,-1529.67 1262.14,-1469.67 809.14,-1469.67"/>
<polygon fill="none" stroke="#29235c" points="809.14,-1469.67 809.14,-1529.67 1262.14,-1529.67 1262.14,-1469.67 809.14,-1469.67"/>
<text text-anchor="start" x="820.14" y="-1489.87" font-family="Helvetica,sans-Serif" font-size="32.00" fill="#29235c">ip_address &#160;&#160;&#160;</text>
<text text-anchor="start" x="1037.83" y="-1490.87" font-family="Helvetica,sans-Serif" font-style="italic" font-size="32.00" fill="#29235c">VARCHAR(45)</text>
<polygon fill="#e7e2dd" stroke="transparent" points="809.14,-1409.67 809.14,-1469.67 1262.14,-1469.67 1262.14,-1409.67 809.14,-1409.67"/>
<polygon fill="none" stroke="#29235c" points="809.14,-1409.67 809.14,-1469.67 1262.14,-1469.67 1262.14,-1409.67 809.14,-1409.67"/>
<text text-anchor="start" x="820.14" y="-1429.87" font-family="Helvetica,sans-Serif" font-size="32.00" fill="#29235c">user_agent &#160;&#160;&#160;</text>
<text text-anchor="start" x="1169.36" y="-1430.87" font-family="Helvetica,sans-Serif" font-style="italic" font-size="32.00" fill="#29235c">TEXT</text>
<polygon fill="none" stroke="#29235c" stroke-width="2" points="807.64,-1408.67 807.64,-1830.67 1262.64,-1830.67 1262.64,-1408.67 807.64,-1408.67"/>
</g>
<!-- users&#45;&gt;sessions -->
<!-- users&#45;&gt;sessions -->
<g id="edge2" class="edge">
<title>users:e&#45;&gt;sessions:w</title>
<path fill="none" stroke="#29235c" stroke-width="3" d="M543,-1134.67C632.43,-1134.67 631.34,-1208.18 675.99,-1285.67 766.47,-1442.64 628.87,-1670.78 797.94,-1679.41"/>
<polygon fill="#29235c" stroke="#29235c" stroke-width="3" points="798.06,-1682.92 808.14,-1679.67 798.23,-1675.92 798.06,-1682.92"/>
<text text-anchor="middle" x="801.92" y="-1689.27" font-family="Helvetica,sans-Serif" font-size="32.00" fill="#29235c">*</text>
<text text-anchor="middle" x="534.1" y="-1144.27" font-family="Helvetica,sans-Serif" font-size="32.00" fill="#29235c">1</text>
</g>
<!-- user_preferences -->
<g id="user_preferences" class="node">
<title>user_preferences</title>
<ellipse fill="none" stroke="black" stroke-width="0" cx="1035.14" cy="-1044.67" rx="314.83" ry="257.27"/>
<polygon fill="#1d71b8" stroke="transparent" points="815.14,-1164.67 815.14,-1224.67 1256.14,-1224.67 1256.14,-1164.67 815.14,-1164.67"/>
<polygon fill="none" stroke="#29235c" points="815.14,-1164.67 815.14,-1224.67 1256.14,-1224.67 1256.14,-1164.67 815.14,-1164.67"/>
<text text-anchor="start" x="848.92" y="-1185.87" font-family="Helvetica,sans-Serif" font-weight="bold" font-size="32.00" fill="#ffffff"> &#160;&#160;&#160;&#160;&#160;&#160;user_preferences &#160;&#160;&#160;&#160;&#160;&#160;</text>
<polygon fill="#e7e2dd" stroke="transparent" points="815.14,-1104.67 815.14,-1164.67 1256.14,-1164.67 1256.14,-1104.67 815.14,-1104.67"/>
<polygon fill="none" stroke="#29235c" points="815.14,-1104.67 815.14,-1164.67 1256.14,-1164.67 1256.14,-1104.67 815.14,-1104.67"/>
<text text-anchor="start" x="826.14" y="-1125.87" font-family="Helvetica,sans-Serif" font-weight="bold" font-size="32.00" fill="#29235c">user_id</text>
<text text-anchor="start" x="931.05" y="-1125.87" font-family="Helvetica,sans-Serif" font-size="32.00" fill="#29235c"> &#160;&#160;&#160;</text>
<text text-anchor="start" x="1031.83" y="-1125.87" font-family="Helvetica,sans-Serif" font-style="italic" font-size="32.00" fill="#29235c">VARCHAR(36)</text>
<polygon fill="#e7e2dd" stroke="transparent" points="815.14,-1044.67 815.14,-1104.67 1256.14,-1104.67 1256.14,-1044.67 815.14,-1044.67"/>
<polygon fill="none" stroke="#29235c" points="815.14,-1044.67 815.14,-1104.67 1256.14,-1104.67 1256.14,-1044.67 815.14,-1044.67"/>
<text text-anchor="start" x="826.14" y="-1064.87" font-family="Helvetica,sans-Serif" font-size="32.00" fill="#29235c">categories &#160;&#160;&#160;</text>
<text text-anchor="start" x="1159.81" y="-1065.87" font-family="Helvetica,sans-Serif" font-style="italic" font-size="32.00" fill="#29235c">JSON</text>
<polygon fill="#e7e2dd" stroke="transparent" points="815.14,-984.67 815.14,-1044.67 1256.14,-1044.67 1256.14,-984.67 815.14,-984.67"/>
<polygon fill="none" stroke="#29235c" points="815.14,-984.67 815.14,-1044.67 1256.14,-1044.67 1256.14,-984.67 815.14,-984.67"/>
<text text-anchor="start" x="826.14" y="-1004.87" font-family="Helvetica,sans-Serif" font-size="32.00" fill="#29235c">sources &#160;&#160;&#160;</text>
<text text-anchor="start" x="1159.81" y="-1005.87" font-family="Helvetica,sans-Serif" font-style="italic" font-size="32.00" fill="#29235c">JSON</text>
<polygon fill="#e7e2dd" stroke="transparent" points="815.14,-924.67 815.14,-984.67 1256.14,-984.67 1256.14,-924.67 815.14,-924.67"/>
<polygon fill="none" stroke="#29235c" points="815.14,-924.67 815.14,-984.67 1256.14,-984.67 1256.14,-924.67 815.14,-924.67"/>
<text text-anchor="start" x="826.05" y="-944.87" font-family="Helvetica,sans-Serif" font-size="32.00" fill="#29235c">language &#160;&#160;&#160;</text>
<text text-anchor="start" x="992.94" y="-945.87" font-family="Helvetica,sans-Serif" font-style="italic" font-size="32.00" fill="#29235c">VARCHAR(10)</text>
<text text-anchor="start" x="1206.25" y="-945.87" font-family="Helvetica,sans-Serif" font-size="32.00" fill="#29235c"> </text>
<text text-anchor="start" x="1215.14" y="-945.87" font-family="Helvetica,sans-Serif" font-weight="bold" font-size="32.00" fill="#29235c">(!)</text>
<polygon fill="#e7e2dd" stroke="transparent" points="815.14,-864.67 815.14,-924.67 1256.14,-924.67 1256.14,-864.67 815.14,-864.67"/>
<polygon fill="none" stroke="#29235c" points="815.14,-864.67 815.14,-924.67 1256.14,-924.67 1256.14,-864.67 815.14,-864.67"/>
<text text-anchor="start" x="826.14" y="-884.87" font-family="Helvetica,sans-Serif" font-size="32.00" fill="#29235c">updated_at &#160;&#160;&#160;</text>
<text text-anchor="start" x="1044.28" y="-885.87" font-family="Helvetica,sans-Serif" font-style="italic" font-size="32.00" fill="#29235c">DATETIME</text>
<text text-anchor="start" x="1206.05" y="-885.87" font-family="Helvetica,sans-Serif" font-size="32.00" fill="#29235c"> </text>
<text text-anchor="start" x="1214.94" y="-885.87" font-family="Helvetica,sans-Serif" font-weight="bold" font-size="32.00" fill="#29235c">(!)</text>
<polygon fill="none" stroke="#29235c" stroke-width="2" points="813.64,-863.67 813.64,-1225.67 1256.64,-1225.67 1256.64,-863.67 813.64,-863.67"/>
</g>
<!-- users&#45;&gt;user_preferences -->
<!-- users&#45;&gt;user_preferences -->
<g id="edge4" class="edge">
<title>users:e&#45;&gt;user_preferences:w</title>
<path fill="none" stroke="#29235c" stroke-width="3" d="M543,-1134.67C660.09,-1134.67 691.85,-1134.67 804.12,-1134.67"/>
<polygon fill="#29235c" stroke="#29235c" stroke-width="3" points="804.14,-1138.17 814.14,-1134.67 804.14,-1131.17 804.14,-1138.17"/>
<text text-anchor="middle" x="807.92" y="-1144.27" font-family="Helvetica,sans-Serif" font-size="32.00" fill="#29235c">*</text>
<text text-anchor="middle" x="551.89" y="-1144.27" font-family="Helvetica,sans-Serif" font-size="32.00" fill="#29235c">1</text>
</g>
<!-- news_digests -->
<g id="news_digests" class="node">
<title>news_digests</title>
<ellipse fill="none" stroke="black" stroke-width="0" cx="1035.14" cy="-384.67" rx="297.88" ry="384.83"/>
<polygon fill="#1d71b8" stroke="transparent" points="827.14,-594.67 827.14,-654.67 1244.14,-654.67 1244.14,-594.67 827.14,-594.67"/>
<polygon fill="none" stroke="#29235c" points="827.14,-594.67 827.14,-654.67 1244.14,-654.67 1244.14,-594.67 827.14,-594.67"/>
<text text-anchor="start" x="876.48" y="-615.87" font-family="Helvetica,sans-Serif" font-weight="bold" font-size="32.00" fill="#ffffff"> &#160;&#160;&#160;&#160;&#160;&#160;news_digests &#160;&#160;&#160;&#160;&#160;&#160;</text>
<polygon fill="#e7e2dd" stroke="transparent" points="827.14,-534.67 827.14,-594.67 1244.14,-594.67 1244.14,-534.67 827.14,-534.67"/>
<polygon fill="none" stroke="#29235c" points="827.14,-534.67 827.14,-594.67 1244.14,-594.67 1244.14,-534.67 827.14,-534.67"/>
<text text-anchor="start" x="838.14" y="-555.87" font-family="Helvetica,sans-Serif" font-weight="bold" font-size="32.00" fill="#29235c">id</text>
<text text-anchor="start" x="863.03" y="-555.87" font-family="Helvetica,sans-Serif" font-size="32.00" fill="#29235c"> &#160;&#160;&#160;</text>
<text text-anchor="start" x="1019.83" y="-555.87" font-family="Helvetica,sans-Serif" font-style="italic" font-size="32.00" fill="#29235c">VARCHAR(36)</text>
<polygon fill="#e7e2dd" stroke="transparent" points="827.14,-474.67 827.14,-534.67 1244.14,-534.67 1244.14,-474.67 827.14,-474.67"/>
<polygon fill="none" stroke="#29235c" points="827.14,-474.67 827.14,-534.67 1244.14,-534.67 1244.14,-474.67 827.14,-474.67"/>
<text text-anchor="start" x="838.14" y="-494.87" font-family="Helvetica,sans-Serif" font-size="32.00" fill="#29235c">user_id &#160;&#160;&#160;</text>
<text text-anchor="start" x="980.74" y="-495.87" font-family="Helvetica,sans-Serif" font-style="italic" font-size="32.00" fill="#29235c">VARCHAR(36)</text>
<text text-anchor="start" x="1194.05" y="-495.87" font-family="Helvetica,sans-Serif" font-size="32.00" fill="#29235c"> </text>
<text text-anchor="start" x="1202.94" y="-495.87" font-family="Helvetica,sans-Serif" font-weight="bold" font-size="32.00" fill="#29235c">(!)</text>
<polygon fill="#e7e2dd" stroke="transparent" points="827.14,-414.67 827.14,-474.67 1244.14,-474.67 1244.14,-414.67 827.14,-414.67"/>
<polygon fill="none" stroke="#29235c" points="827.14,-414.67 827.14,-474.67 1244.14,-474.67 1244.14,-414.67 827.14,-414.67"/>
<text text-anchor="start" x="838.14" y="-434.87" font-family="Helvetica,sans-Serif" font-size="32.00" fill="#29235c">category &#160;&#160;&#160;</text>
<text text-anchor="start" x="1002.04" y="-435.87" font-family="Helvetica,sans-Serif" font-style="italic" font-size="32.00" fill="#29235c">VARCHAR(100)</text>
<polygon fill="#e7e2dd" stroke="transparent" points="827.14,-354.67 827.14,-414.67 1244.14,-414.67 1244.14,-354.67 827.14,-354.67"/>
<polygon fill="none" stroke="#29235c" points="827.14,-354.67 827.14,-414.67 1244.14,-414.67 1244.14,-354.67 827.14,-354.67"/>
<text text-anchor="start" x="838.14" y="-374.87" font-family="Helvetica,sans-Serif" font-size="32.00" fill="#29235c">title &#160;&#160;&#160;</text>
<text text-anchor="start" x="1112.27" y="-375.87" font-family="Helvetica,sans-Serif" font-style="italic" font-size="32.00" fill="#29235c">TEXT</text>
<text text-anchor="start" x="1194.05" y="-375.87" font-family="Helvetica,sans-Serif" font-size="32.00" fill="#29235c"> </text>
<text text-anchor="start" x="1202.94" y="-375.87" font-family="Helvetica,sans-Serif" font-weight="bold" font-size="32.00" fill="#29235c">(!)</text>
<polygon fill="#e7e2dd" stroke="transparent" points="827.14,-294.67 827.14,-354.67 1244.14,-354.67 1244.14,-294.67 827.14,-294.67"/>
<polygon fill="none" stroke="#29235c" points="827.14,-294.67 827.14,-354.67 1244.14,-354.67 1244.14,-294.67 827.14,-294.67"/>
<text text-anchor="start" x="838.14" y="-314.87" font-family="Helvetica,sans-Serif" font-size="32.00" fill="#29235c">summary &#160;&#160;&#160;</text>
<text text-anchor="start" x="1151.36" y="-315.87" font-family="Helvetica,sans-Serif" font-style="italic" font-size="32.00" fill="#29235c">TEXT</text>
<polygon fill="#e7e2dd" stroke="transparent" points="827.14,-234.67 827.14,-294.67 1244.14,-294.67 1244.14,-234.67 827.14,-234.67"/>
<polygon fill="none" stroke="#29235c" points="827.14,-234.67 827.14,-294.67 1244.14,-294.67 1244.14,-234.67 827.14,-234.67"/>
<text text-anchor="start" x="837.81" y="-254.87" font-family="Helvetica,sans-Serif" font-size="32.00" fill="#29235c">updated_at &#160;&#160;&#160;</text>
<text text-anchor="start" x="1032.71" y="-255.87" font-family="Helvetica,sans-Serif" font-style="italic" font-size="32.00" fill="#29235c">DATETIME</text>
<text text-anchor="start" x="1194.48" y="-255.87" font-family="Helvetica,sans-Serif" font-size="32.00" fill="#29235c"> </text>
<text text-anchor="start" x="1203.37" y="-255.87" font-family="Helvetica,sans-Serif" font-weight="bold" font-size="32.00" fill="#29235c">(!)</text>
<polygon fill="#e7e2dd" stroke="transparent" points="827.14,-174.67 827.14,-234.67 1244.14,-234.67 1244.14,-174.67 827.14,-174.67"/>
<polygon fill="none" stroke="#29235c" points="827.14,-174.67 827.14,-234.67 1244.14,-234.67 1244.14,-174.67 827.14,-174.67"/>
<text text-anchor="start" x="838.14" y="-194.87" font-family="Helvetica,sans-Serif" font-size="32.00" fill="#29235c">created_at &#160;&#160;&#160;</text>
<text text-anchor="start" x="1108.72" y="-195.87" font-family="Helvetica,sans-Serif" font-style="italic" font-size="32.00" fill="#29235c">DATE</text>
<text text-anchor="start" x="1194.05" y="-195.87" font-family="Helvetica,sans-Serif" font-size="32.00" fill="#29235c"> </text>
<text text-anchor="start" x="1202.94" y="-195.87" font-family="Helvetica,sans-Serif" font-weight="bold" font-size="32.00" fill="#29235c">(!)</text>
<polygon fill="#e7e2dd" stroke="transparent" points="827.14,-114.67 827.14,-174.67 1244.14,-174.67 1244.14,-114.67 827.14,-114.67"/>
<polygon fill="none" stroke="#29235c" points="827.14,-114.67 827.14,-174.67 1244.14,-174.67 1244.14,-114.67 827.14,-114.67"/>
<text text-anchor="start" x="838.14" y="-134.87" font-family="Helvetica,sans-Serif" font-size="32.00" fill="#29235c">expires_at &#160;&#160;&#160;</text>
<text text-anchor="start" x="1108.72" y="-135.87" font-family="Helvetica,sans-Serif" font-style="italic" font-size="32.00" fill="#29235c">DATE</text>
<text text-anchor="start" x="1194.05" y="-135.87" font-family="Helvetica,sans-Serif" font-size="32.00" fill="#29235c"> </text>
<text text-anchor="start" x="1202.94" y="-135.87" font-family="Helvetica,sans-Serif" font-weight="bold" font-size="32.00" fill="#29235c">(!)</text>
<polygon fill="none" stroke="#29235c" stroke-width="2" points="825.64,-113.67 825.64,-655.67 1244.64,-655.67 1244.64,-113.67 825.64,-113.67"/>
</g>
<!-- users&#45;&gt;news_digests -->
<!-- users&#45;&gt;news_digests -->
<g id="edge6" class="edge">
<title>users:e&#45;&gt;news_digests:w</title>
<path fill="none" stroke="#29235c" stroke-width="3" d="M543,-1134.67C846.53,-1134.67 526.51,-518.74 816.04,-504.9"/>
<polygon fill="#29235c" stroke="#29235c" stroke-width="3" points="816.23,-508.4 826.14,-504.67 816.06,-501.4 816.23,-508.4"/>
<text text-anchor="middle" x="819.92" y="-475.87" font-family="Helvetica,sans-Serif" font-size="32.00" fill="#29235c">*</text>
<text text-anchor="middle" x="534.1" y="-1105.87" font-family="Helvetica,sans-Serif" font-size="32.00" fill="#29235c">1</text>
</g>
<!-- magic_link_tokens -->
<g id="magic_link_tokens" class="node">
<title>magic_link_tokens</title>
<ellipse fill="none" stroke="black" stroke-width="0" cx="338" cy="-1679.67" rx="337.99" ry="384.83"/>
<polygon fill="#1d71b8" stroke="transparent" points="101,-1889.67 101,-1949.67 575,-1949.67 575,-1889.67 101,-1889.67"/>
<polygon fill="none" stroke="#29235c" points="101,-1889.67 101,-1949.67 575,-1949.67 575,-1889.67 101,-1889.67"/>
<text text-anchor="start" x="144.17" y="-1910.87" font-family="Helvetica,sans-Serif" font-weight="bold" font-size="32.00" fill="#ffffff"> &#160;&#160;&#160;&#160;&#160;&#160;magic_link_tokens &#160;&#160;&#160;&#160;&#160;&#160;</text>
<polygon fill="#e7e2dd" stroke="transparent" points="101,-1829.67 101,-1889.67 575,-1889.67 575,-1829.67 101,-1829.67"/>
<polygon fill="none" stroke="#29235c" points="101,-1829.67 101,-1889.67 575,-1889.67 575,-1829.67 101,-1829.67"/>
<text text-anchor="start" x="112" y="-1850.87" font-family="Helvetica,sans-Serif" font-weight="bold" font-size="32.00" fill="#29235c">id</text>
<text text-anchor="start" x="136.89" y="-1850.87" font-family="Helvetica,sans-Serif" font-size="32.00" fill="#29235c"> &#160;&#160;&#160;</text>
<text text-anchor="start" x="350.69" y="-1850.87" font-family="Helvetica,sans-Serif" font-style="italic" font-size="32.00" fill="#29235c">VARCHAR(36)</text>
<polygon fill="#e7e2dd" stroke="transparent" points="101,-1769.67 101,-1829.67 575,-1829.67 575,-1769.67 101,-1769.67"/>
<polygon fill="none" stroke="#29235c" points="101,-1769.67 101,-1829.67 575,-1829.67 575,-1769.67 101,-1769.67"/>
<text text-anchor="start" x="111.5" y="-1789.87" font-family="Helvetica,sans-Serif" font-size="32.00" fill="#29235c">token_hash &#160;&#160;&#160;</text>
<text text-anchor="start" x="311.8" y="-1790.87" font-family="Helvetica,sans-Serif" font-style="italic" font-size="32.00" fill="#29235c">VARCHAR(64)</text>
<text text-anchor="start" x="525.11" y="-1790.87" font-family="Helvetica,sans-Serif" font-size="32.00" fill="#29235c"> </text>
<text text-anchor="start" x="534" y="-1790.87" font-family="Helvetica,sans-Serif" font-weight="bold" font-size="32.00" fill="#29235c">(!)</text>
<polygon fill="#e7e2dd" stroke="transparent" points="101,-1709.67 101,-1769.67 575,-1769.67 575,-1709.67 101,-1709.67"/>
<polygon fill="none" stroke="#29235c" points="101,-1709.67 101,-1769.67 575,-1769.67 575,-1709.67 101,-1709.67"/>
<text text-anchor="start" x="112" y="-1729.87" font-family="Helvetica,sans-Serif" font-size="32.00" fill="#29235c">email &#160;&#160;&#160;</text>
<text text-anchor="start" x="293.81" y="-1730.87" font-family="Helvetica,sans-Serif" font-style="italic" font-size="32.00" fill="#29235c">VARCHAR(255)</text>
<text text-anchor="start" x="524.91" y="-1730.87" font-family="Helvetica,sans-Serif" font-size="32.00" fill="#29235c"> </text>
<text text-anchor="start" x="533.8" y="-1730.87" font-family="Helvetica,sans-Serif" font-weight="bold" font-size="32.00" fill="#29235c">(!)</text>
<polygon fill="#e7e2dd" stroke="transparent" points="101,-1649.67 101,-1709.67 575,-1709.67 575,-1649.67 101,-1649.67"/>
<polygon fill="none" stroke="#29235c" points="101,-1649.67 101,-1709.67 575,-1709.67 575,-1649.67 101,-1649.67"/>
<text text-anchor="start" x="112" y="-1669.87" font-family="Helvetica,sans-Serif" font-size="32.00" fill="#29235c">expires_at &#160;&#160;&#160;</text>
<text text-anchor="start" x="363.14" y="-1670.87" font-family="Helvetica,sans-Serif" font-style="italic" font-size="32.00" fill="#29235c">DATETIME</text>
<text text-anchor="start" x="524.91" y="-1670.87" font-family="Helvetica,sans-Serif" font-size="32.00" fill="#29235c"> </text>
<text text-anchor="start" x="533.8" y="-1670.87" font-family="Helvetica,sans-Serif" font-weight="bold" font-size="32.00" fill="#29235c">(!)</text>
<polygon fill="#e7e2dd" stroke="transparent" points="101,-1589.67 101,-1649.67 575,-1649.67 575,-1589.67 101,-1589.67"/>
<polygon fill="none" stroke="#29235c" points="101,-1589.67 101,-1649.67 575,-1649.67 575,-1589.67 101,-1589.67"/>
<text text-anchor="start" x="112" y="-1609.87" font-family="Helvetica,sans-Serif" font-size="32.00" fill="#29235c">used &#160;&#160;&#160;</text>
<text text-anchor="start" x="370.21" y="-1610.87" font-family="Helvetica,sans-Serif" font-style="italic" font-size="32.00" fill="#29235c">BOOLEAN</text>
<text text-anchor="start" x="524.91" y="-1610.87" font-family="Helvetica,sans-Serif" font-size="32.00" fill="#29235c"> </text>
<text text-anchor="start" x="533.8" y="-1610.87" font-family="Helvetica,sans-Serif" font-weight="bold" font-size="32.00" fill="#29235c">(!)</text>
<polygon fill="#e7e2dd" stroke="transparent" points="101,-1529.67 101,-1589.67 575,-1589.67 575,-1529.67 101,-1529.67"/>
<polygon fill="none" stroke="#29235c" points="101,-1529.67 101,-1589.67 575,-1589.67 575,-1529.67 101,-1529.67"/>
<text text-anchor="start" x="112" y="-1549.87" font-family="Helvetica,sans-Serif" font-size="32.00" fill="#29235c">used_at &#160;&#160;&#160;</text>
<text text-anchor="start" x="402.23" y="-1550.87" font-family="Helvetica,sans-Serif" font-style="italic" font-size="32.00" fill="#29235c">DATETIME</text>
<polygon fill="#e7e2dd" stroke="transparent" points="101,-1469.67 101,-1529.67 575,-1529.67 575,-1469.67 101,-1469.67"/>
<polygon fill="none" stroke="#29235c" points="101,-1469.67 101,-1529.67 575,-1529.67 575,-1469.67 101,-1469.67"/>
<text text-anchor="start" x="112" y="-1489.87" font-family="Helvetica,sans-Serif" font-size="32.00" fill="#29235c">ip_address &#160;&#160;&#160;</text>
<text text-anchor="start" x="350.69" y="-1490.87" font-family="Helvetica,sans-Serif" font-style="italic" font-size="32.00" fill="#29235c">VARCHAR(45)</text>
<polygon fill="#e7e2dd" stroke="transparent" points="101,-1409.67 101,-1469.67 575,-1469.67 575,-1409.67 101,-1409.67"/>
<polygon fill="none" stroke="#29235c" points="101,-1409.67 101,-1469.67 575,-1469.67 575,-1409.67 101,-1409.67"/>
<text text-anchor="start" x="112" y="-1429.87" font-family="Helvetica,sans-Serif" font-size="32.00" fill="#29235c">created_at &#160;&#160;&#160;</text>
<text text-anchor="start" x="363.14" y="-1430.87" font-family="Helvetica,sans-Serif" font-style="italic" font-size="32.00" fill="#29235c">DATETIME</text>
<text text-anchor="start" x="524.91" y="-1430.87" font-family="Helvetica,sans-Serif" font-size="32.00" fill="#29235c"> </text>
<text text-anchor="start" x="533.8" y="-1430.87" font-family="Helvetica,sans-Serif" font-weight="bold" font-size="32.00" fill="#29235c">(!)</text>
<polygon fill="none" stroke="#29235c" stroke-width="2" points="100,-1408.67 100,-1950.67 576,-1950.67 576,-1408.67 100,-1408.67"/>
</g>
<!-- digest_sources -->
<g id="digest_sources" class="node">
<title>digest_sources</title>
<ellipse fill="none" stroke="black" stroke-width="0" cx="1737.94" cy="-414.67" rx="343.81" ry="342.48"/>
<polygon fill="#1d71b8" stroke="transparent" points="1496.94,-594.67 1496.94,-654.67 1978.94,-654.67 1978.94,-594.67 1496.94,-594.67"/>
<polygon fill="none" stroke="#29235c" points="1496.94,-594.67 1496.94,-654.67 1978.94,-654.67 1978.94,-594.67 1496.94,-594.67"/>
<text text-anchor="start" x="1568.11" y="-615.87" font-family="Helvetica,sans-Serif" font-weight="bold" font-size="32.00" fill="#ffffff"> &#160;&#160;&#160;&#160;&#160;&#160;digest_sources &#160;&#160;&#160;&#160;&#160;&#160;</text>
<polygon fill="#e7e2dd" stroke="transparent" points="1496.94,-534.67 1496.94,-594.67 1978.94,-594.67 1978.94,-534.67 1496.94,-534.67"/>
<polygon fill="none" stroke="#29235c" points="1496.94,-534.67 1496.94,-594.67 1978.94,-594.67 1978.94,-534.67 1496.94,-534.67"/>
<text text-anchor="start" x="1507.94" y="-555.87" font-family="Helvetica,sans-Serif" font-weight="bold" font-size="32.00" fill="#29235c">id</text>
<text text-anchor="start" x="1532.83" y="-555.87" font-family="Helvetica,sans-Serif" font-size="32.00" fill="#29235c"> &#160;&#160;&#160;</text>
<text text-anchor="start" x="1754.63" y="-555.87" font-family="Helvetica,sans-Serif" font-style="italic" font-size="32.00" fill="#29235c">VARCHAR(36)</text>
<polygon fill="#e7e2dd" stroke="transparent" points="1496.94,-474.67 1496.94,-534.67 1978.94,-534.67 1978.94,-474.67 1496.94,-474.67"/>
<polygon fill="none" stroke="#29235c" points="1496.94,-474.67 1496.94,-534.67 1978.94,-534.67 1978.94,-474.67 1496.94,-474.67"/>
<text text-anchor="start" x="1507.94" y="-494.87" font-family="Helvetica,sans-Serif" font-size="32.00" fill="#29235c">digest_id &#160;&#160;&#160;</text>
<text text-anchor="start" x="1715.54" y="-495.87" font-family="Helvetica,sans-Serif" font-style="italic" font-size="32.00" fill="#29235c">VARCHAR(36)</text>
<text text-anchor="start" x="1928.85" y="-495.87" font-family="Helvetica,sans-Serif" font-size="32.00" fill="#29235c"> </text>
<text text-anchor="start" x="1937.75" y="-495.87" font-family="Helvetica,sans-Serif" font-weight="bold" font-size="32.00" fill="#29235c">(!)</text>
<polygon fill="#e7e2dd" stroke="transparent" points="1496.94,-414.67 1496.94,-474.67 1978.94,-474.67 1978.94,-414.67 1496.94,-414.67"/>
<polygon fill="none" stroke="#29235c" points="1496.94,-414.67 1496.94,-474.67 1978.94,-474.67 1978.94,-414.67 1496.94,-414.67"/>
<text text-anchor="start" x="1507.94" y="-434.87" font-family="Helvetica,sans-Serif" font-size="32.00" fill="#29235c">url &#160;&#160;&#160;</text>
<text text-anchor="start" x="1679.97" y="-435.87" font-family="Helvetica,sans-Serif" font-style="italic" font-size="32.00" fill="#29235c">VARCHAR(2048)</text>
<text text-anchor="start" x="1928.85" y="-435.87" font-family="Helvetica,sans-Serif" font-size="32.00" fill="#29235c"> </text>
<text text-anchor="start" x="1937.75" y="-435.87" font-family="Helvetica,sans-Serif" font-weight="bold" font-size="32.00" fill="#29235c">(!)</text>
<polygon fill="#e7e2dd" stroke="transparent" points="1496.94,-354.67 1496.94,-414.67 1978.94,-414.67 1978.94,-354.67 1496.94,-354.67"/>
<polygon fill="none" stroke="#29235c" points="1496.94,-354.67 1496.94,-414.67 1978.94,-414.67 1978.94,-354.67 1496.94,-354.67"/>
<text text-anchor="start" x="1507.94" y="-374.87" font-family="Helvetica,sans-Serif" font-size="32.00" fill="#29235c">url_hash &#160;&#160;&#160;</text>
<text text-anchor="start" x="1715.54" y="-375.87" font-family="Helvetica,sans-Serif" font-style="italic" font-size="32.00" fill="#29235c">VARCHAR(64)</text>
<text text-anchor="start" x="1928.85" y="-375.87" font-family="Helvetica,sans-Serif" font-size="32.00" fill="#29235c"> </text>
<text text-anchor="start" x="1937.75" y="-375.87" font-family="Helvetica,sans-Serif" font-weight="bold" font-size="32.00" fill="#29235c">(!)</text>
<polygon fill="#e7e2dd" stroke="transparent" points="1496.94,-294.67 1496.94,-354.67 1978.94,-354.67 1978.94,-294.67 1496.94,-294.67"/>
<polygon fill="none" stroke="#29235c" points="1496.94,-294.67 1496.94,-354.67 1978.94,-354.67 1978.94,-294.67 1496.94,-294.67"/>
<text text-anchor="start" x="1507.94" y="-314.87" font-family="Helvetica,sans-Serif" font-size="32.00" fill="#29235c">title &#160;&#160;&#160;</text>
<text text-anchor="start" x="1736.85" y="-315.87" font-family="Helvetica,sans-Serif" font-style="italic" font-size="32.00" fill="#29235c">VARCHAR(500)</text>
<polygon fill="#e7e2dd" stroke="transparent" points="1496.94,-234.67 1496.94,-294.67 1978.94,-294.67 1978.94,-234.67 1496.94,-234.67"/>
<polygon fill="none" stroke="#29235c" points="1496.94,-234.67 1496.94,-294.67 1978.94,-294.67 1978.94,-234.67 1496.94,-234.67"/>
<text text-anchor="start" x="1507.74" y="-254.87" font-family="Helvetica,sans-Serif" font-size="32.00" fill="#29235c">source_name &#160;&#160;&#160;</text>
<text text-anchor="start" x="1736.89" y="-255.87" font-family="Helvetica,sans-Serif" font-style="italic" font-size="32.00" fill="#29235c">VARCHAR(100)</text>
<polygon fill="#e7e2dd" stroke="transparent" points="1496.94,-174.67 1496.94,-234.67 1978.94,-234.67 1978.94,-174.67 1496.94,-174.67"/>
<polygon fill="none" stroke="#29235c" points="1496.94,-174.67 1496.94,-234.67 1978.94,-234.67 1978.94,-174.67 1496.94,-174.67"/>
<text text-anchor="start" x="1507.94" y="-194.87" font-family="Helvetica,sans-Serif" font-size="32.00" fill="#29235c">published_at &#160;&#160;&#160;</text>
<text text-anchor="start" x="1806.18" y="-195.87" font-family="Helvetica,sans-Serif" font-style="italic" font-size="32.00" fill="#29235c">DATETIME</text>
<polygon fill="none" stroke="#29235c" stroke-width="2" points="1495.94,-173.67 1495.94,-655.67 1979.94,-655.67 1979.94,-173.67 1495.94,-173.67"/>
</g>
<!-- news_digests&#45;&gt;digest_sources -->
<!-- news_digests&#45;&gt;digest_sources -->
<g id="edge8" class="edge">
<title>news_digests:e&#45;&gt;digest_sources:w</title>
<path fill="none" stroke="#29235c" stroke-width="3" d="M1245.14,-564.67C1356.28,-564.67 1379.94,-508.24 1485.79,-504.83"/>
<polygon fill="#29235c" stroke="#29235c" stroke-width="3" points="1486,-508.32 1495.94,-504.67 1485.89,-501.33 1486,-508.32"/>
<text text-anchor="middle" x="1502.17" y="-475.87" font-family="Helvetica,sans-Serif" font-size="32.00" fill="#29235c">*</text>
<text text-anchor="middle" x="1236.25" y="-574.27" font-family="Helvetica,sans-Serif" font-size="32.00" fill="#29235c">1</text>
</g>
</g>
</svg>
